{"title":"Nightmare Beach 1988 DVDRip.x264-PsiX","uid":8603759,"size":1147656863,"categoryP":"video","categoryS":"movies","magnet":"?xt=urn:btih:5a548fc69ed7bed7a14b2789e813c4dcdb47b940&amp;dn=Nightmare+Beach+1988+DVDRip.x264-PsiX&amp;tr=udp%3A%2F%2Ftracker.openbittorrent.com%3A80&amp;tr=udp%3A%2F%2Fopen.demonii.com%3A1337&amp;tr=udp%3A%2F%2Ftracker.coppersurfer.tk%3A6969&amp;tr=udp%3A%2F%2Fexodus.desync.com%3A6969","seeders":4,"leechers":1,"uploader":"sakhslitsa","files":4,"time":1371948185,"description":"Nightmare Beach 1988 DVDRip.x264-PsiX\n\n &lt;a href=&quot;\nhttp://www.freeimgshost.com/fullsize/xwqat94p3qizvwjnwxex.png&quot; rel=&quot;nofollow&quot; target=&quot;_NEW&quot;&gt;\nhttp://www.freeimgshost.com/fullsize/xwqat94p3qizvwjnwxex.png&lt;/a&gt;\n\n &lt;a href=&quot;\nhttp://www.freeimgshost.com/fullsize/fu7vjzmk21azk3i4vxa.png&quot; rel=&quot;nofollow&quot; target=&quot;_NEW&quot;&gt;\nhttp://www.freeimgshost.com/fullsize/fu7vjzmk21azk3i4vxa.png&lt;/a&gt;\n\n &lt;a href=&quot;\nhttp://www.freeimgshost.com/fullsize/ifc1cefmigw1zx48cygh.png&quot; rel=&quot;nofollow&quot; target=&quot;_NEW&quot;&gt;\nhttp://www.freeimgshost.com/fullsize/ifc1cefmigw1zx48cygh.png&lt;/a&gt;\n\n &lt;a href=&quot;\nhttp://www.freeimgshost.com/fullsize/d66u71s93iffg98hf03.png&quot; rel=&quot;nofollow&quot; target=&quot;_NEW&quot;&gt;\nhttp://www.freeimgshost.com/fullsize/d66u71s93iffg98hf03.png&lt;/a&gt;\n\n\n\nNightmare.Beach.1988.DVDRip.x264-PsiX.mkv\n\nFormat : Matroska\nFormat version : Version 2\nFile size : 1.07 GiB\nDuration : 1h 27mn\nOverall bit rate : 1 749 Kbps\nEncoded date : UTC 2013-06-22 17:43:48\nWriting application : mkvmerge v6.2.0 ('Promised Land') built on Apr 28 2013 12:22:01\nWriting library : libebml v1.3.0 + libmatroska v1.4.0\n\nVideo\nID : 1\nFormat : AVC\nFormat/Info : Advanced Video Codec\nFormat profile : &lt;a class=&quot;__cf_email__&quot; href=&quot;/cdn-cgi/l/email-protection&quot; data-cfemail=&quot;a5edccc2cde5e9918b94&quot;&gt;[email&amp;#160;protected]&lt;/a&gt;&lt;script cf-hash='f9e31' type=&quot;text/javascript&quot;&gt;\n/* &lt;![CDATA[ */!function(){try{var t=&quot;currentScript&quot;in document?document.currentScript:function(){for(var t=document.getElementsByTagName(&quot;script&quot;),e=t.length;e--;)if(t[e].getAttribute(&quot;cf-hash&quot;))return t[e]}();if(t&amp;&amp;t.previousSibling){var e,r,n,i,c=t.previousSibling,a=c.getAttribute(&quot;data-cfemail&quot;);if(a){for(e=&quot;&quot;,r=parseInt(a.substr(0,2),16),n=2;a.length-n;n+=2)i=parseInt(a.substr(n,2),16)^r,e+=String.fromCharCode(i);e=document.createTextNode(e),c.parentNode.replaceChild(e,c)}}}catch(u){}}();/* ]]&gt; */&lt;/script&gt;\nFormat settings, CABAC : Yes\nFormat settings, ReFrames : 5 frames\nCodec ID : V_MPEG4/ISO/AVC\nDuration : 1h 27mn\nBit rate : 1 555 Kbps\nWidth : 704 pixels\nHeight : 384 pixels\nDisplay aspect ratio : 1.85:1\nFrame rate mode : Constant\nFrame rate : 25.000 fps\nColor space : YUV\nChroma subsampling : 4:2:0\nBit depth : 8 bits\nScan type : Progressive\nBits/(Pixel*Frame) : 0.230\nStream size : 950 MiB (87%)\nWriting library : x264 core 133 r2334 a3ac64b\n\n\nAudio\nID : 2\nFormat : AC-3\nFormat/Info : Audio Coding 3\nMode extension : CM (complete main)\nFormat settings, Endianness : Big\nCodec ID : A_AC3\nDuration : 1h 27mn\nBit rate mode : Constant\nBit rate : 192 Kbps\nChannel(s) : 2 channels\nChannel positions : Front: L R\nSampling rate : 48.0 KHz\nBit depth : 16 bits\nCompression mode : Lossy\nStream size : 120 MiB (11%)\nDefault : Yes\nForced : No\n\nMenu\n00:00:00.000 : en:Chapter 01\n00:09:12.960 : en:Chapter 02\n00:18:02.840 : en:Chapter 03\n00:24:01.640 : en:Chapter 04\n00:31:53.640 : en:Chapter 05\n00:40:05.960 : en:Chapter 06\n00:49:55.520 : en:Chapter 07\n00:56:28.400 : en:Chapter 08\n01:04:40.560 : en:Chapter 09\n01:10:25.120 : en:Chapter 10\n01:16:54.280 : en:Chapter 11\n01:24:25.000 : en:Chapter 12\n\n\n\n\nEncoded............: PsiX\nSource.............: DVD9\nSubs..........It idx\n","torrent":{"xt":"urn:btih:5a548fc69ed7bed7a14b2789e813c4dcdb47b940","amp;dn":"Nightmare+Beach+1988+DVDRip.x264-PsiX","amp;tr":["udp%3A%2F%2Ftracker.openbittorrent.com%3A80","udp%3A%2F%2Fopen.demonii.com%3A1337","udp%3A%2F%2Ftracker.coppersurfer.tk%3A6969","udp%3A%2F%2Fexodus.desync.com%3A6969"],"infoHash":"5a548fc69ed7bed7a14b2789e813c4dcdb47b940","infoHashBuffer":{"type":"Buffer","data":[90,84,143,198,158,215,190,215,161,75,39,137,232,19,196,220,219,71,185,64]},"announce":[],"urlList":[]}}